<?xml version="1.0" encoding="UTF-8"?>
<svg width="127.98mm" height="111.63mm" version="1.1" viewBox="0 0 453.45477 395.54106" xmlns="http://www.w3.org/2000/svg">
 <g transform="translate(-30.415 -26.02)">
  <g transform="matrix(.98788 0 0 .98788 -935.71 -567.59)">
   <path d="m987.26 603.33c-4.1921 0-7.5672 3.3885-7.5672 7.5996v33.404h459.02v-33.404c0-4.2111-3.3751-7.5996-7.5672-7.5996h-443.88z" fill="#806600" fill-rule="evenodd"/>
   <rect x="984.21" y="628.66" width="451.77" height="370" ry="0" fill="#bcd35f" fill-rule="evenodd"/>
   <g transform="matrix(.41688 0 0 -.41688 1023.2 743.67)" fill="#0b2228">
    <path d="m0 0c-0.444-0.517-0.856-0.352-1.256 0.059-4.073 12.439-8.164 24.873-12.206 37.322-0.826 2.545-1.974 4.998-2.318 7.691 0.352-0.124 0.704-0.247 1.056-0.371 1.225-0.542 1.713-1.621 2.105-2.801 4.27-12.878 8.718-25.696 12.711-38.665 0.336-1.092 0.62-2.176-0.092-3.235" fill="#0b2228"/>
   </g>
   <g transform="matrix(.41688 0 0 -.41688 1015.7 648.91)" fill="#06f">
    <path d="m0 0c8.986 3.944 18.11 7.397 27.945 8.65 18.737 2.386 36.423-0.663 52.961-9.933 0.595-0.334 1.261-0.54 1.894-0.806 5.216-2.055 9.796-5.101 13.949-8.846 15.752-14.2 25.078-31.839 28.286-52.756 2.15-14.022-0.707-27.191-6.674-39.881-7.765-16.513-18.174-31.296-29.497-45.49-7.997-10.026-16.354-19.737-25.246-28.992-1.612-1.678-3.272-3.297-4.918-4.939-0.906-0.86-1.984-1.029-3.164-0.803-0.715 0.152-1.429 0.123-2.145-6e-3 -1.106-0.264-2.232-0.265-3.354-0.243-7.68 0.149-15.364-0.193-23.036 0.187-0.974 0.318-1.955 0.525-2.953 0.056-1.128-0.215-2.187-0.113-3.106 0.651-3.687 3.536-7.252 7.184-10.689 10.977-10.374 11.444-20.367 23.195-29.396 35.737-6.747 9.374-13.141 18.981-18.241 29.374-4.457 9.082-7.98 18.506-8.933 28.656-0.627 6.689 0.375 13.329 1.668 19.887 3.572 18.117 12.269 33.444 25.647 46.079 5.56 5.251 11.556 9.994 19.002 12.441" fill="#06f"/>
   </g>
   <g transform="matrix(.41688 0 0 -.41688 1040.5 743.64)" fill="#0b2228">
    <path d="m0 0c-0.38-0.451-0.77-0.544-1.177-0.034-0.726 1.055-0.449 2.119-0.086 3.219 4.188 12.71 8.204 25.477 12.509 38.15 0.466 1.371 1.248 2.428 2.301 3.347 0.363 0.066 0.726 0.132 1.089 0.198-1.141-3.626-2.244-7.264-3.429-10.875-3.719-11.34-7.469-22.671-11.207-34.005" fill="#0b2228"/>
   </g>
   <g transform="matrix(.41688 0 0 -.41688 1015.7 648.91)" fill="#80b3ff">
    <path d="m0 0c-4.297-3.052-8.985-5.513-13.077-8.887-21.184-17.468-32.014-39.903-32.01-67.357 1e-3 -10.909 4.104-20.838 8.9-30.431 8.703-17.412 20.286-32.876 32.603-47.836 7.942-9.648 16.42-18.814 24.938-27.946-0.427-1.006-1.259-1.397-2.277-1.41-4.402-0.054-8.805-0.367-13.208 0.094-0.972 0.101-1.763 0.704-2.723 0.765-0.412 0.156-0.747 0.413-0.998 0.776-19.018 19.956-36.996 40.742-50.99 64.65-5.365 9.167-9.992 18.715-12.045 29.228-2.556 13.085-0.477 25.846 4.304 38.035 10.026 25.562 28.416 42.244 54.807 50.011 0.573 0.169 1.183 0.208 1.776 0.308" fill="#80b3ff"/>
   </g>
   <g transform="matrix(.41688 0 0 -.41688 1029 743.65)" fill="#0b2228">
    <path d="m0 0c-1.313 8.383-2.57 16.776-3.958 25.146-1.074 6.483-1.835 13.022-3.35 19.43 0.487 0.618 0.968 0.622 1.442-0.014 0.922-8.779 2.743-17.419 4.051-26.139 0.924-6.16 1.991-12.298 2.994-18.447-0.407-0.669-0.807-1.038-1.179 0.024" fill="#0b2228"/>
   </g>
   <g transform="matrix(.41688 0 0 -.41688 1039.9 724.95)" fill="#80b3ff">
    <path d="m0 0c11.808 12.603 23.365 25.421 33.869 39.151 8.868 11.593 16.87 23.713 23.718 36.648 12.679 23.946 11.021 47.563-1.045 70.986-7.114 13.809-17.598 24.624-30.83 32.767-0.358 0.22-0.672 0.511-1.007 0.769 1.104 0.235 2.048-0.296 2.993-0.692 30.525-12.785 47.895-35.639 52.202-68.41 1.743-13.26-2.01-25.428-7.77-37.145-8.097-16.473-18.883-31.145-30.429-45.297-8.124-9.958-16.682-19.535-25.665-28.73-0.368-0.253-0.702-0.552-1.086-0.785-1.965-1.281-4.181-0.801-6.311-0.874-1.986-0.068-3.973 0.022-5.957 0.112-1.123 0.052-2.306 0.077-2.682 1.5" fill="#80b3ff"/>
   </g>
   <g transform="matrix(.41688 0 0 -.41688 1038.8 725.09)" fill="#0b2228">
    <path d="m0 0c-1.755-10.569-3.52-21.136-5.261-31.706-0.701-4.262-1.351-8.532-2.024-12.798-0.368-0.879-0.756-0.959-1.171-0.031 2.412 14.836 4.823 29.672 7.234 44.509 0.398 0.485 0.805 0.496 1.222 0.026" fill="#0b2228"/>
   </g>
   <g transform="matrix(.41688 0 0 -.41688 1044.4 745.2)" fill="#164450">
    <path d="m0 0c-2.386-12.071-4.795-24.138-7.123-36.22-0.25-1.293-0.744-1.74-2.023-1.737-13.199 0.029-26.398 0.041-39.597-0.012-1.636-7e-3 -2.021 0.815-2.283 2.156-2.361 12.083-4.761 24.159-7.15 36.237 1.517 0.044 1.831-1.338 2.511-2.215 0.62-0.801 1.239-1.595 1.936-2.327 0.508-0.788 0.319-1.653 0.318-2.518-6e-3 -2.963 2.22-5.461 4.798-5.459 2.844 2e-3 4.714 2.099 4.792 5.367 0.019 0.773-0.199 1.559 0.123 2.319 1.288 1.294 2.101 2.924 3.098 4.423 1.693 2.544 2.164 2.568 3.618 0.017 0.898-1.578 1.952-3.034 3.14-4.399 0.383-0.836 0.122-1.711 0.134-2.57 0.046-3.102 1.826-5.08 4.667-5.154 2.336-0.06 4.623 2.233 4.838 4.93 0.075 0.938-0.227 1.907 0.251 2.814 1.527 1.341 2.267 3.195 3.251 4.9 1.082 1.876 2.153 1.925 3.183 0.092 0.97-1.726 2.217-3.258 3.207-4.96 0.31-0.746 0.164-1.503 0.108-2.276-0.199-2.754 1.766-5.219 4.301-5.476 2.575-0.262 4.666 1.523 5.13 4.365 0.151 0.924-0.049 1.899 0.4 2.782 0.92 1.562 2.334 2.777 3.092 4.464 0.201 0.449 0.669 0.823 1.28 0.457" fill="#164450"/>
   </g>
   <g transform="matrix(.41688 0 0 -.41688 1040.5 743.64)" fill="#164450">
    <path d="m0 0c3.093-0.031 6.186-0.062 9.278-0.092 0.073-3.386-1.944-5.694-4.087-7.939-0.249-0.071-0.57-0.188-0.753-0.055-2.956 2.135-5.998 2.17-9.148 0.467-0.203-0.11-0.504 0.041-0.748 0.134-2.008 1.585-2.815 3.988-4.112 6.054-0.446 0.71-0.403 1.455 0.277 2.068 2.434 1.075 4.969 0.507 7.473 0.46 0.75-0.126 1.189-0.77 1.82-1.097" fill="#164450"/>
   </g>
   <g transform="matrix(.41688 0 0 -.41688 1020.1 743.68)" fill="#164450">
    <path d="m0 0c2.053 0.031 4.107 0.062 6.16 0.093 0.592 0.407 1.152 0.869 1.87 1.059 3.494 0.159 6.999 0.659 10.453-0.357 0.675-0.555 0.931-1.286 0.541-2.059-1.148-2.269-2.015-4.738-4.213-6.308-0.246-0.063-0.554-0.189-0.747-0.066-3.149 2.016-6.275 1.468-9.404-0.04-2.765 1.822-4.316 4.384-4.66 7.678" fill="#164450"/>
   </g>
   <g transform="matrix(.41688 0 0 -.41688 1042.6 746.88)">
    <path d="M 0,0 C 1.833,2.334 3.391,4.821 4.271,7.685 5.042,7.913 5.433,7.637 5.204,6.844 4.931,5.897 4.549,4.981 4.214,4.051 3,2.335 2.082,0.408 0.536,-1.069 -0.146,-0.965 -0.238,-0.565 0,0" fill="#f5f3ed"/>
   </g>
   <g transform="matrix(.41688 0 0 -.41688 1020.1 743.68)">
    <path d="m0 0c1.204-2.656 2.43-5.298 4.591-7.356 0.326-0.629 0.093-0.952-0.57-1.041-1.792 1.368-2.619 3.479-3.987 5.182-0.272 0.781-0.544 1.553-0.81 2.328-0.252 0.738-0.116 1.145 0.776 0.887" fill="#f9f5f1"/>
   </g>
   <g transform="matrix(.41688 0 0 -.41688 1021.8 747.18)" fill="#59f">
    <path d="m0 0c0.19 0.347 0.38 0.695 0.57 1.042 3.76 3.316 6.331 3.332 10.006 0.063 0.565-0.151 0.712-0.526 0.568-1.058 1.102-4.399-0.542-7.595-4.344-8.443-3.189-0.711-6.404 1.5-7.123 4.831-0.269 1.245 0.136 2.385 0.323 3.565" fill="#59f"/>
   </g>
   <g transform="matrix(.41688 0 0 -.41688 1042.6 746.88)" fill="#59f">
    <path d="m0 0c0.179-0.356 0.358-0.713 0.536-1.069 0.052-0.603 0.133-1.205 0.151-1.809 0.078-2.57-0.937-4.552-3.281-5.702-2.215-1.086-4.404-0.915-6.325 0.649-1.962 1.596-2.825 3.665-2.132 6.223 0.112 0.416 0.18 0.844 0.269 1.266 0.189 0.322 7e-3 0.871 0.585 0.954 3.992 3.226 6.622 3.094 10.197-0.512" fill="#59f"/>
   </g>
   <g transform="matrix(.41688 0 0 -.41688 1034.6 747.19)" fill="#59f">
    <path d="m0 0c0.689-2.686 0.433-5.169-1.805-7.068-1.78-1.511-3.844-1.841-6.054-1-3.141 1.195-4.283 4.037-3.293 8.174-0.06 0.592-0.069 1.176 0.283 1.701 2.851 3.732 7.766 3.699 10.723-0.07 0.307-0.557 0.125-1.155 0.146-1.737" fill="#59f"/>
   </g>
   <g transform="matrix(.41688 0 0 -.41688 1030.2 746.73)">
    <path d="m0 0c-0.191-0.334-0.381-0.668-0.572-1.002-1.891 1.578-2.824 3.846-4.243 5.975-1.646-1.931-2.29-4.475-4.284-6.02-0.188 0.352-0.377 0.705-0.567 1.057 1.924 2.114 3.329 4.513 4.028 7.302 0.48 0.293 0.954 0.194 1.427-0.02 2.275-1.928 3.952-4.2 4.211-7.292" fill="#faf7f3"/>
   </g>
   <g transform="matrix(.41688 0 0 -.41688 1034.6 747.19)">
    <path d="m0 0c-0.185 0.335-0.369 0.67-0.554 1.006 0.29 3.082 2.046 5.345 4.148 7.414 0.408-2e-3 0.815-4e-3 1.222-7e-3 0.841-2.701 2.405-4.984 4.137-7.172-0.195-0.318-0.39-0.635-0.585-0.953-1.69 1.658-2.717 3.78-4.016 5.945-1.622-2.095-2.261-4.691-4.352-6.233" fill="#faf7f5"/>
   </g>
   <g transform="matrix(.41688 0 0 -.41688 1036.1 743.68)" fill="#164450">
    <path d="m0 0c-0.728-2.838-2.175-5.273-4.148-7.414-3.702 3.367-6.323 3.394-10.025 0.103-1.933 2.124-3.489 4.466-4.21 7.291 0.416 0.026 0.834 0.052 1.251 0.078 0.385-0.403 0.776-0.534 1.179-0.023 4.622 7e-3 9.243 0.015 13.864 0.023 0.403-0.476 0.793-0.454 1.171 0.031 0.306-0.03 0.612-0.06 0.918-0.089" fill="#164450"/>
   </g>
   <g transform="matrix(.73816 0 0 -.73816 1052.7 704.03)" fill="#0cf">
    <path d="m0 0c-2.063 1.48-4.279 2.792-6.147 4.487-1.885 1.711-3.274 1.493-5.076-0.072-1.912-1.66-4.092-3.012-6.586-4.27 0.76 2.359 1.348 4.793 2.326 7.058 1.021 2.365 0.719 3.893-1.623 5.244-2.182 1.26-4.115 2.951-6.039 5.005 2.822 0 5.649 0.093 8.466-0.034 1.789-0.081 2.742 0.411 3.214 2.284 0.678 2.691 1.707 5.293 2.833 8.675 1.112-3.393 2.082-6.087 2.862-8.836 0.441-1.551 1.157-2.208 2.851-2.123 2.907 0.144 5.826 0.04 8.739 0.04 0.045-0.198 0.09-0.396 0.134-0.594-2.429-1.776-4.824-3.602-7.303-5.305-1.114-0.765-1.365-1.517-0.902-2.802 0.995-2.756 1.826-5.572 2.724-8.364-0.158-0.131-0.315-0.262-0.473-0.393" fill="#0cf"/>
   </g>
   <g transform="matrix(1.9297 0 0 -1.9297 1020.4 657.42)" fill="#d5f6ff">
    <path d="m0 0c1.217-2.269 0.925-5.117 2.614-6.169 1.505-0.938 3.946-0.373 6.676-0.504-1.688-1.232-2.825-2.175-4.071-2.939-1.221-0.75-1.563-1.595-1.005-2.951 0.591-1.436 1.004-2.945 1.716-5.086-1.826 1.296-3.114 2.074-4.237 3.044-1.179 1.019-2.152 1.016-3.332 0.022-1.076-0.907-2.294-1.646-3.589-2.558-0.312 1.791 0.521 3.068 0.974 4.363 0.555 1.585 0.231 2.519-1.169 3.355-1.191 0.71-2.259 1.627-3.521 2.556 2.361 0.811 5.026-0.62 6.459 0.756 1.382 1.326 1.63 3.833 2.485 6.111" fill="#d5f6ff"/>
   </g>
   <circle cx="1042.2" cy="654.86" r="18.233" fill="#fff" fill-rule="evenodd"/>
   <rect x="1021.1" y="621.27" width="42.454" height="35.826" ry="2.9195" fill="#fff" fill-rule="evenodd"/>
   <circle cx="1126.3" cy="654.86" r="18.233" fill="#fff" fill-rule="evenodd"/>
   <rect x="1105.2" y="621.27" width="42.454" height="35.826" ry="2.9195" fill="#fff" fill-rule="evenodd"/>
   <circle cx="1210.1" cy="654.86" r="18.233" fill="#fff" fill-rule="evenodd"/>
   <rect x="1189" y="621.27" width="42.454" height="35.826" ry="2.9195" fill="#fff" fill-rule="evenodd"/>
   <circle cx="1292.6" cy="654.86" r="18.233" fill="#fff" fill-rule="evenodd"/>
   <rect x="1271.5" y="621.27" width="42.454" height="35.826" ry="2.9195" fill="#fff" fill-rule="evenodd"/>
   <circle cx="1376.1" cy="654.86" r="18.233" fill="#fff" fill-rule="evenodd"/>
   <rect x="1355" y="621.27" width="42.454" height="35.826" ry="2.9195" fill="#fff" fill-rule="evenodd"/>
   <g transform="matrix(1.1821 0 0 1.0699 1616.2 -136.35)">
    <g transform="matrix(1.25 0 0 -1.25 -173.22 832.51)" fill="#502d16">
     <path d="m0 0c-1.631 3.088-8.429 5.501-13.805 6.977-0.211-3.658-3.235-6.56-6.945-6.56-3.711 0-6.732 2.902-6.944 6.56-5.376-1.476-12.175-3.889-13.806-6.977-2.065-7.336 1.496-8.731 1.496-8.731l17.209 3.128 24.57-4.727s0.85 3.667-1.775 10.33" fill="#502d16"/>
    </g>
    <g transform="matrix(1.25 0 0 -1.25 -224.58 831.72)" fill="#502d16">
     <path d="m0 0-8.1441-34.927 12.9-13.977 4.1449 4.3286-9.0989 11.032 4.8744 19.861v-37.581s8.71-2.039 15.148-2.039c6.437 0 16.662 1.894 16.662 1.894v38.775l5.7131-22.034-9.9471-10.017c0.691 0 3.1507-4.9951 3.1507-4.9951l14.032 13.486-6.9232 30.942" fill="#502d16"/>
    </g>
    <g transform="matrix(1.25 0 0 -1.25 -211.32 824.81)" fill="#fff">
     <path d="M 0,0 9.73,-18.019 19.992,-0.169 16.129,0.967 9.995,-0.814 3.201,0.967 0,0 Z" fill="#fff"/>
    </g>
    <g transform="matrix(1.25 0 0 -1.25 -211.32 824.81)" fill="#28170b">
     <path d="M 0,0 0.912,0.274 9.73,-16.491 19.373,0.042 19.992,-0.171 9.73,-18.021 0,0 Z" fill="#28170b"/>
    </g>
    <g transform="matrix(1.25 0 0 -1.25 -205.27 822.76)" fill="#e3dedb">
     <path d="M 0,0 5.153,-2.456 -0.018,-6.361 -5.19,-1.413 0,0 Z" fill="#e3dedb"/>
    </g>
    <g transform="matrix(1.25 0 0 -1.25 -192.57 822.76)" fill="#e3dedb">
     <path d="M 0,0 -5.004,-2.456 -0.379,-6.361 4.993,-1.518 0,0 Z" fill="#e3dedb"/>
    </g>
    <g transform="matrix(1.2901 0 0 1.1209 58.193 -90.632)">
     <g transform="matrix(1.25 0 0 -1.25 -183.45 795.41)">
      <path d="m0 0c0 10.22-5.627 16.032-12.569 16.032s-12.571-5.812-12.571-16.032c0-13.747 5.629-18.507 12.571-18.507s12.569 5.334 12.569 18.507" fill="#f1c9a5"/>
     </g>
     <g transform="matrix(1.25 0 0 -1.25 -185.84 804.27)">
      <path d="m0 0c-2.279 0.239-3.817 2.693-3.431 5.48 0.382 2.79 2.539 4.861 4.819 4.623 2.277-0.237 3.812-2.69 3.43-5.48-0.385-2.79-2.54-4.859-4.818-4.623" fill="#f1c9a5"/>
     </g>
     <g transform="matrix(1.25 0 0 -1.25 -218.39 798.49)">
      <path d="M 0,0 C -0.385,2.791 1.151,5.243 3.428,5.48 5.709,5.719 7.865,3.647 8.249,0.858 8.633,-1.93 7.094,-4.384 4.817,-4.623 2.538,-4.858 0.382,-2.79 0,0" fill="#f1c9a5"/>
     </g>
     <g transform="matrix(-1.25 0 0 -1.25 -189.11 777.82)" fill="#231f20">
      <path d="m0 0s2.334-9.45 15.342-14.23c-1.223 2.112-1.445 4.669-1.445 4.669s2.111-2.223 5.558-4.002c1.891 3.779 4.115 9.45-0.889 12.563-5.003 3.113-16.899 8.672-18.566 1" fill="#231f20"/>
     </g>
     <path transform="matrix(-1.25 0 0 -1.25 -183.69 794.63)" d="m0 0s1.4935 9.7321 5.5145 12.118c-3.6922 2.9483-9.1835-2.0011-8.6265-4.7801 0.555-2.779 3.112-7.338 3.112-7.338" fill="#231f20"/>
     <g transform="matrix(1.801 0 0 1.801 -195.34 812.86)" fill="#f00">
      <path d="m0 0s-0.299 1.333-2.045 1.333c-1.597 0-2.046-1.333-2.046-1.333h4.091z" fill="#f00"/>
     </g>
    </g>
   </g>
   <rect x="984.4" y="811.95" width="451.51" height="50.508" ry="0" fill="#f9db3f"/>
   <rect x="984.2" y="858.65" width="451.75" height="139.78" ry="0" fill="#806600"/>
   <g transform="translate(942.48 -23.213)" fill="#806600" fill-rule="evenodd">
    <circle cx="58.41" cy="678.07" r="18.233"/>
    <rect x="37.298" y="640.56" width="42.454" height="39.757" ry="3.2398"/>
    <circle cx="141.77" cy="678.07" r="18.233"/>
    <rect x="120.66" y="642.56" width="42.454" height="37.751" ry="3.0763"/>
    <circle cx="225.91" cy="678.07" r="18.233"/>
    <rect x="204.8" y="640.85" width="42.454" height="39.461" ry="3.2156"/>
    <circle cx="309.68" cy="678.07" r="18.233"/>
    <rect x="288.56" y="639.65" width="42.454" height="40.664" ry="3.3137"/>
    <circle cx="392.2" cy="678.07" r="18.233"/>
    <rect x="371.09" y="640.25" width="42.454" height="40.059" ry="3.2644"/>
    <circle cx="475.66" cy="678.07" r="18.233"/>
    <rect x="454.55" y="643.58" width="41.591" height="36.735" ry="2.0635"/>
   </g>
   <g transform="translate(-579.83 12.122)">
    <g transform="matrix(.33037 0 0 -.33037 1605.3 802.41)" fill="#f8ebe8">
     <path d="m0 0s25.905-19 39.238-23l-1.667-14.667s-32.809 6.334-37.571 10.667 0 27 0 27" fill="#f8ebe8"/>
    </g>
    <g transform="matrix(.33037 0 0 -.33037 1587.2 802.64)" fill="#f8ebe8">
     <path d="m0 0s-25.905-19-39.238-23l1.667-14.667s32.809 6.334 37.571 10.667 0 27 0 27" fill="#f8ebe8"/>
    </g>
    <g transform="matrix(.24244 0 0 -.24244 1572 808.77)" fill="#f8ebe8">
     <path d="m0 0c15.556 4.06 22.094-28.5 5.297-33.5s-22.797 28.933-5.297 33.5" fill="#f8ebe8"/>
    </g>
    <g transform="matrix(.33037 0 0 -.33037 1586.5 801.65)" fill="#ffdbe9">
     <path d="m0 0s-19.755-62-38.877-85.667c0 0 63.877-27.666 133.54-1.666 0 0-33.767 65.333-38.383 91l-56.284-3.667z" fill="#ffdbe9"/>
    </g>
    <g transform="matrix(.33037 0 0 -.33037 1581.1 816.6)" fill="#ff5ddf">
     <path d="m0 0s44.544-15.73 90.433 0.603l3.313-7.259s-37.839-24.914-98.631-2.994l4.885 9.65z" fill="#ff5ddf"/>
    </g>
    <g transform="matrix(.33037 0 0 -.33037 1620.5 774.45)" fill="#a05a2c">
     <path d="m0 0c6.167-9.822 5.479-21.356-1.537-25.761s-17.703-0.013-23.87 9.809c-6.167 9.823-5.479 21.356 1.537 25.761s17.703 0.014 23.87-9.809" fill="#a05a2c"/>
    </g>
    <g transform="matrix(.33037 0 0 -.33037 1569.8 772.61)" fill="#a05a2c">
     <path d="m0 0c7.369 8.956 18.529 11.949 24.926 6.685s5.609-16.791-1.76-25.747c-7.37-8.956-18.529-11.949-24.926-6.685s-5.609 16.791 1.76 25.747" fill="#a05a2c"/>
    </g>
    <g transform="matrix(.33037 0 0 -.33037 1615.6 787.85)" fill="#f8ebe8">
     <path d="m0 0c0-30.284-29.251-54.833-65.333-54.833-36.083 0-65.334 24.549-65.334 54.833s29.251 54.833 65.334 54.833c36.082 0 65.333-24.549 65.333-54.833" fill="#f8ebe8"/>
    </g>
    <g transform="matrix(.33037 0 0 -.33037 1594 769.73)" fill="#a05a2c">
     <path d="m0 0c-36.083 0-65.333-24.55-65.333-54.833 0-2.866 0.264-5.679 0.768-8.426 18.001 2.486 51.828 11.106 65.935 40.993 0 0 24.126-28.804 63.916-34.153 0.017 0.528 0.047 1.054 0.047 1.586 0 30.283-29.25 54.833-65.333 54.833" fill="#a05a2c"/>
    </g>
    <g transform="matrix(.33037 0 0 -.33037 1590 800.5)">
     <path d="m0 0h27.333s-3.333-11.333-13.666-12c-10.334-0.667-13.667 12-13.667 12" fill="#bd1823"/>
    </g>
    <g transform="matrix(.33037 0 0 -.33037 1584.1 822.68)" fill="#a04">
     <path d="m0 0c20.524 0.046 22.783-48-1.68-48.333-24.463-0.334-18.686 48.287 1.68 48.333" fill="#a04"/>
    </g>
    <g transform="matrix(.33037 0 0 -.33037 1605.2 822.7)" fill="#a04">
     <path d="m0 0c20.38 2.424 28.191-45.037 3.932-48.202-24.26-3.166-24.155 45.797-3.932 48.202" fill="#a04"/>
    </g>
    <g transform="matrix(.24244 0 0 -.24244 1619.6 808.77)" fill="#f8ebe8">
     <path d="m0 0c15.556 4.06 22.094-28.5 5.297-33.5s-22.797 28.933-5.297 33.5" fill="#f8ebe8"/>
    </g>
   </g>
   <g transform="matrix(.15919 0 0 .15919 787.86 567.08)">
    <g transform="matrix(4.9932 0 0 -4.9932 1921.2 1226.3)" fill="#87aade">
     <path d="m0 0s-24 14.989-42.75 16.494l-8.5-33.994s20.5-6 42-6c0 0-7.5-16.25-7.75-31 0 0-36.5-3.5-39.25-7s20.5-34.75 20.5-34.75 23.81 5.5 43.03 20.5c0 0 31.72-7.75 54.72-0.25 0 0 28.75-22.25 46.25-24l16.25 42.25s-27 3.5-43.75 2c0 0-8.045 25.274-14.25 36.25 0 0 32.25-7.75 45-4.25l-1.75 38.006s-29.75-9.506-51.5-16.506-58.25 2.25-58.25 2.25" fill="#87aade"/>
    </g>
    <g transform="matrix(4.9932 0 0 -4.9932 2233.4 1451.2)" fill="#afdde9">
     <path d="m0 0c0-15.172-13.664-27.472-30.52-27.472s-30.52 12.3-30.52 27.472 13.664 27.472 30.52 27.472 30.52-12.3 30.52-27.472" fill="#afdde9"/>
    </g>
    <g transform="matrix(4.9932 0 0 -4.9932 2542.9 1514.7)" fill="#214478">
     <path d="m0 0c8.112-1.803 0.75-42.5-16.25-42.25s2.75 45.25 16.25 42.25" fill="#214478"/>
    </g>
    <g transform="matrix(4.9932 0 0 -4.9932 2469.2 1155.1)" fill="#214478">
     <path d="m0 0c10.819 2.12 10.992-37.103 1.75-38.006s-15.75 35.262-1.75 38.006" fill="#214478"/>
    </g>
    <g transform="matrix(4.9932 0 0 -4.9932 1707.8 1144)" fill="#214478">
     <path d="m0 0c8.03-0.16 2.75-32.244-8.5-33.994s-3.75 34.238 8.5 33.994" fill="#214478"/>
    </g>
    <g transform="matrix(4.9932 0 0 -4.9932 1640.4 1533.4)" fill="#214478">
     <path d="m0 0c9.296 6.419 28.75-25.75 20.5-34.75s-31 27.5-20.5 34.75" fill="#214478"/>
    </g>
    <g transform="matrix(4.9932 0 0 -4.9932 1886.3 1572.1)">
     <path d="m0 0s1.159-0.81 3.386-1.82c2.2-1.063 5.49-2.247 9.51-3.351 4.019-1.122 8.82-1.975 13.991-2.611 5.172-0.643 10.739-0.936 16.302-0.96 5.553-0.085 11.106 0.255 16.244 1.027 5.132 0.775 9.883 1.854 13.794 3.284 3.912 1.407 7.063 2.923 9.129 4.223 2.099 1.253 3.144 2.208 3.144 2.208s-0.924-1.071-2.888-2.582c-1.98-1.47-4.972-3.429-8.909-5.071-3.923-1.641-8.69-3.18-13.945-4.059-5.248-0.89-10.919-1.343-16.587-1.362-5.654 0.129-11.301 0.534-16.557 1.289-5.26 0.733-10.071 2.035-14.101 3.361-4.039 1.33-7.207 2.963-9.338 4.204-2.121 1.28-3.175 2.22-3.175 2.22" fill="#214478"/>
    </g>
    <g transform="matrix(4.9932 0 0 -4.9932 2165.9 917.99)" fill="#87aade">
     <path d="m0 0c1.5 20 29 27.5 46.5 12s0-41-15.5-40-31 28-31 28" fill="#87aade"/>
    </g>
    <g transform="matrix(4.9932 0 0 -4.9932 2187.3 945.65)" fill="#214478">
     <path d="m 0,0 c 0,0 10.781,27.861 32.224,10.833 15.967,-12.679 -5,-29.422 -18.5,-34.124 C 0.224,-27.992 0,0 0,0" fill="#214478"/>
    </g>
    <g transform="matrix(4.9932 0 0 -4.9932 2003.6 937.31)" fill="#87aade">
     <path d="M 0,0 C 0,0 -14.25,42.163 -42.803,19.496 -73.898,-5.189 -46,-29.688 -26.5,-24.16 -7,-18.631 0,0 0,0" fill="#87aade"/>
    </g>
    <g transform="matrix(4.9932 0 0 -4.9932 1956.2 952.94)" fill="#214478">
     <path d="M 0,0 C 0,0 -7.765,31.377 -28.5,17.151 -47.241,4.294 -32,-16 -14.25,-15.5 3.5,-15 0,0 0,0" fill="#214478"/>
    </g>
    <g transform="matrix(4.9932 0 0 -4.9932 2348.2 1084.3)" fill="#87aade">
     <path d="m0 0c0-21.926-23.953-39.701-53.5-39.701s-53.5 17.775-53.5 39.701 23.953 39.701 53.5 39.701 53.5-17.775 53.5-39.701" fill="#87aade"/>
    </g>
    <g transform="matrix(4.9932 0 0 -4.9932 2253.3 1144)" fill="#afdde9">
     <path d="m0 0c0-12.561-15.782-22.744-35.25-22.744s-35.25 10.183-35.25 22.744 15.782 22.744 35.25 22.744 35.25-10.183 35.25-22.744" fill="#afdde9"/>
    </g>
    <g transform="matrix(2.7904 0 0 -2.7904 2119.4 1057.3)" fill="#214478">
     <path d="m0 0c0-3.846-7.539-6.964-16.838-6.964-9.3 0-16.839 3.118-16.839 6.964s7.539 6.964 16.839 6.964c9.299 0 16.838-3.118 16.838-6.964" fill="#214478"/>
    </g>
    <g transform="matrix(4.9932 0 0 -4.9932 1868.5 1204.3)" fill="#214478">
     <path d="m0 0s0.874-1.061 2.705-2.573c1.793-1.55 4.593-3.475 8.163-5.343 3.565-1.889 8.014-3.48 12.89-4.659 4.881-1.157 10.234-1.875 15.611-1.837 5.371-0.139 10.768 0.19 15.742 0.997 4.972 0.804 9.569 1.921 13.358 3.338 3.791 1.398 6.86 2.852 8.894 4.075 2.064 1.177 3.126 2.045 3.126 2.045s-0.948-0.99-2.877-2.424c-1.948-1.391-4.851-3.283-8.656-4.913-3.795-1.626-8.398-3.204-13.5-4.114-5.094-0.928-10.61-1.372-16.13-1.337-5.528 0.071-11.043 0.914-16.065 2.21-5.033 1.306-9.474 3.368-13.033 5.476-3.575 2.113-6.151 4.452-7.832 6.156-1.658 1.745-2.396 2.903-2.396 2.903" fill="#214478"/>
    </g>
   </g>
   <g transform="matrix(.25034 0 0 .25034 758.16 636.84)">
    <g transform="matrix(1.25 0 0 -.64303 1779.6 862.22)" fill="#502">
     <path d="m0 0h-16.886c-3.044 0-5.534 2.49-5.534 5.534v0.701c0 3.043 2.49 5.533 5.534 5.533h16.886c3.043 0 5.534-2.49 5.534-5.533v-0.701c0-3.044-2.491-5.534-5.534-5.534" fill="#502"/>
    </g>
    <g transform="matrix(1.25 0 0 -1.25 1635.4 787.41)" fill="#afdde9">
     <path d="m0 0c1.827 3.714 96.927-0.3 97.85-1.364 0.924-1.063 2.267-46.078 0-46.787-2.266-0.709-96.399-1.418-97.183 1.418-0.784 2.835-2.447 43.116-0.667 46.733" fill="#afdde9"/>
    </g>
    <g transform="matrix(1.25 0 0 -1.25 1636.2 845.83)" fill="#214478">
     <path d="m0 0s0-11.937 0.988-13.115c0.988-1.177 88.544-4.326 94.072-3.049 3.161 1.632 2.124 14.746 2.124 14.746l-97.184 1.418z" fill="#214478"/>
    </g>
    <g transform="matrix(1.25 0 0 -1.25 1737.4 866.03)" fill="#502">
     <path d="m0 0c0-5.4-4.378-9.778-9.778-9.778s-9.778 4.378-9.778 9.778 4.378 9.778 9.778 9.778 9.778-4.378 9.778-9.778" fill="#502"/>
    </g>
    <g transform="matrix(1.25 0 0 -1.25 1670.8 864.7)" fill="#502">
     <path d="m0 0c0-5.4-4.378-9.778-9.778-9.778s-9.778 4.378-9.778 9.778 4.378 9.778 9.778 9.778 9.778-4.378 9.778-9.778" fill="#502"/>
    </g>
    <g transform="matrix(1.25 0 0 -1.25 1979.1 800.6)" fill="#a04">
     <path d="m0 0s48.112-42.568 52.365-52.646c1.3-3.08-54.137-4.094-54.137-4.094s0.354 55.145 1.772 56.74" fill="#a04"/>
    </g>
    <g transform="matrix(1.25 0 0 -1.25 1945.4 773.26)" fill="#214478">
     <path d="m0 0s-2.127 29.849 0 31.976c2.127 2.126 18.786 0 18.786 0v-35.091l-18.786 3.115z" fill="#214478"/>
    </g>
    <g transform="matrix(1.25 0 0 -1.25 1979.1 768.74)" fill="#afdde9">
     <path d="m0 0s-77.412 3.064-79.29 1.709c-1.879-1.355-6.841-52.395-3.651-53.813s82.587-1.063 82.941 0 3.19 48.914 0 52.104" fill="#afdde9"/>
    </g>
    <g transform="matrix(1.25 0 0 -1.25 1937.8 717.34)" fill="#a04">
     <path d="m0 0s-1.295-16.659 0-17.722c1.295-1.064 29.114-1.403 30.085 0.684 0.971 2.088 1.887 15.406 0.306 17.178-1.582 1.772-27.801 0.569-30.391-0.14" fill="#a04"/>
    </g>
    <g transform="matrix(1.25 0 0 -1.25 1858.3 734.31)" fill="#214478">
     <path d="m0 0c0.249-10.311 0.645-30.835-0.151-31.157-1.064-0.429-47.496-4.103-49.978-2.051-1.834 1.517-3.437 24.234-2.855 34.91l-16.639 0.535s2.26-77.27 4.32-78.688 77.912-3.899 78.975-3.19c1.064 0.709 4.963 79.042 4.963 79.042l-18.635 0.599z" fill="#214478"/>
    </g>
    <g transform="matrix(1.25 0 0 -1.25 1765.3 705.38)" fill="#a04">
     <path d="m0 0c1.923 2.127 96.556-1.206 98.329-2.624 1.772-1.418 4.612-27.859 4.967-26.795 0.354 1.063-106.28-2.481-108.79 0s3.568 27.292 5.491 29.419" fill="#a04"/>
    </g>
    <g transform="matrix(1.25 0 0 -1.25 1776.7 829.88)" fill="#87aade">
     <path d="m0 0s0.288-25.52 1.705-28.002c1.418-2.481 155.25-6.38 158.44-5.316 3.19 1.063 1.773 30.128 1.773 30.128s-154.41 3.544-161.92 3.19" fill="#87aade"/>
    </g>
    <g transform="matrix(1.25 0 0 -1.25 1851.5 860.75)" fill="#502">
     <path d="m0 0c0-10.179-8.252-18.431-18.431-18.431-10.18 0-18.432 8.252-18.432 18.431s8.252 18.431 18.432 18.431c10.179 0 18.431-8.252 18.431-18.431" fill="#502"/>
    </g>
    <g transform="matrix(1.25 0 0 -1.25 1836.7 860.75)" fill="#f9db3f">
     <path d="m0 0c0-3.662-2.969-6.63-6.63-6.63-3.662 0-6.631 2.968-6.631 6.63s2.969 6.63 6.631 6.63c3.661 0 6.63-2.968 6.63-6.63" fill="#f9db3f"/>
    </g>
    <g transform="matrix(1.25 0 0 -1.25 1956.6 866.03)" fill="#502">
     <path d="m0 0c0-10.179-8.252-18.431-18.431-18.431-10.18 0-18.432 8.252-18.432 18.431s8.252 18.431 18.432 18.431c10.179 0 18.431-8.252 18.431-18.431" fill="#502"/>
    </g>
    <g transform="matrix(1.25 0 0 -1.25 1941.8 866.03)" fill="#f9db3f">
     <path d="m0 0c0-3.662-2.969-6.63-6.63-6.63-3.662 0-6.631 2.968-6.631 6.63s2.969 6.63 6.631 6.63c3.661 0 6.63-2.968 6.63-6.63" fill="#f9db3f"/>
    </g>
   </g>
   <g transform="matrix(.15035 0 0 .15035 229.41 839.14)" fill-rule="evenodd">
    <path transform="matrix(3.9946 0 0 3.9946 -514.8 -3673.8)" d="m1583.7 827.1c-1.37 0-2.4883 1.1202-2.4883 2.4902v97.715h-43.916c11.332 14.134 28.741 23.186 48.268 23.186 19.526 0 36.932-9.0518 48.264-23.186h-47.633v-97.715c0-1.37-1.119-2.4902-2.4902-2.4902z" fill="#806600"/>
    <path d="m5821.5 7.1545c45.597 3.3591 104.67-1.712 163.64 0-12.538-127.71-75.323-211.11-163.64-261.43z" fill="#06f"/>
    <path d="m5801.6-264.86c-53.492 112.18-134.69 194.35-220.04 272.02 73.346 6.4335 146.69 14.41 220.04 0z" fill="#0cf"/>
    <path d="m5942.4-311.29c-40.544-8.5332-82.788-5.1762-120.94-30.484v60.967c40.312 2.3311 80.624-18.188 120.94-30.484z" fill="#a04"/>
   </g>
   <g transform="matrix(-1 0 0 1 2927.3 -30.735)">
    <g transform="matrix(1.25 0 0 -1.25 1652.7 806.22)" fill="#87aade">
     <path d="m0 0c1.006 3.306 1.581 6.037-2.013 4.743-3.592-1.294-1.725 3.162-4.024 1.438-2.299-1.725-2.731 2.874-4.6 0.574-1.868-2.299-10.78-5.175-9.487-8.193 1.294-3.018-2.587-2.875-1.005-5.174 1.581-2.301-3.45-1.151-1.438-3.738 2.012-2.588-5.031-4.313-1.293-4.599 3.736-0.287-2.731-3.739 0.43-5.031 3.162-1.293-4.024-1.869-0.287-6.325s17.393 14.805 23.717 26.305" fill="#87aade" fill-rule="evenodd"/>
    </g>
    <path transform="translate(0 1.6535e-6)" d="m1630.7 792.53c-0.8357-1.2e-4 -1.5928 0.23523-2.2149 0.75976-4.1056 3.463 0.1825 12.616 5.5547 15.533-5.9839 7.0847-3.784 15.825-7.8906 23.277-4.7577 8.6341-16.942 4.1395-22.154 8.5391-2.7395 0.53711-5.553 2.5709-8.3906 5.834-2.9729 3.4185 1.3591-0.0673 6.1992-1.5801-0.4479 4.6295 3.1083 10.374 2.4258 14.877-0.8975 5.9288-1.6166 12.935 6.6484 12.396 8.265-0.54 6.1094-7.0072 4.6719-10.961-1.4375-3.9525 4.6712 0.53937 8.9824 0.35937 4.3113-0.18 7.546-2.5144 6.6485 0.35938-0.8987 2.875-3.7738 10.422 6.4687 9.7031 10.241-0.71875 3.5922-9.8815 5.5684-18.146 1.9775-8.2662-1.6172-16.531 1.9765-20.125 3.5925-3.5925 10.062 3.5951 15.272 6.1113 5.21 2.5138 17.247 0.44773 20.305-11.322 3.545-13.648-13.297-21.56-19.047-22.1-5.0566-0.47278-10.81-6.6433-19.703-2.9863-1.2929-4.9212-7.2403-10.529-11.32-10.529z" fill="#ffdbe9" fill-rule="evenodd"/>
    <g transform="matrix(1.25 0 0 -1.25 1637.1 803.52)" fill="#87aade">
     <path d="m0 0c2.688 2.119-3.206 7.442-5.254 5.715-2.368-1.997 2.33-8.02 5.254-5.715" fill="#87aade" fill-rule="evenodd"/>
    </g>
    <g transform="matrix(1.25 0 0 -1.25 1680.7 828.14)" fill="#87aade">
     <path d="m0 0c-1.676-6.454-6.727-9.261-11.082-9.739-0.364 2.395-0.297 5.019 0.281 7.695 1.235 5.73 4.502 10.282 8.385 12.387 2.229-2.745 3.488-6.216 2.416-10.343" fill="#87aade" fill-rule="evenodd"/>
    </g>
    <g transform="matrix(1.25 0 0 -1.25 1597.4 846.29)" fill="#87aade">
     <path d="m0 0c-2.443 3.45-5.75-3.019-5.75-4.887 0-1.869 6.756 1.725 5.75 4.887" fill="#87aade" fill-rule="evenodd"/>
    </g>
   </g>
   <g transform="matrix(.83473 0 0 -.83473 1428.4 835.69)" fill="#ff5ddf">
    <path d="M 0,0 -21.933,21.884 -43.867,0 0,0 Z" fill="#ff5ddf" fill-rule="evenodd"/>
   </g>
   <g transform="matrix(.83473 0 0 -.83473 1428.3 847.87)" fill="#87aade">
    <path d="m0 0v14.59h-43.769v-14.59h14.59c0 4.028 3.266 7.295 7.295 7.295s7.295-3.267 7.295-7.295h14.589z" fill="#87aade" fill-rule="evenodd"/>
   </g>
   <g transform="matrix(.83473 0 0 -.83473 1369.4 856.2)" fill="#0cf">
    <path d="m0 0v14.59h-43.769v-14.59h14.59c0 4.028 3.266 7.295 7.295 7.295 4.028 0 7.295-3.267 7.295-7.295h14.589z" fill="#0cf" fill-rule="evenodd"/>
   </g>
   <g transform="matrix(.83473 0 0 -.83473 1385.4 856.31)" fill="#ff5ddf">
    <path d="M 0,0 -6.577,30.278 -36.869,23.77 0,0 Z" fill="#ff5ddf" fill-rule="evenodd"/>
   </g>
   <g transform="matrix(.69001 0 0 .69001 570.89 170.41)">
    <g transform="matrix(-1.25 0 0 -1.25 1182.3 919.73)" fill="#06f">
     <path d="m0 0c3.59 0 6.519 1.048 6.519 2.332 0 1.285-2.929 2.332-6.519 2.332s-6.519-1.047-6.519-2.332c0-1.284 2.929-2.332 6.519-2.332" fill="#06f" fill-rule="evenodd"/>
    </g>
    <g transform="matrix(-1.25 0 0 -1.25 1168.4 921.07)" fill="#0cf">
     <path d="m0 0c2.298-0.134 4.663-0.469 6.832-0.368 4.438 0.206 11.765 4.541 9.082 0.619-2.684-3.921-3.509-17.854-15.687-17.854-11.245 0-14.067 8.173-10.775 13.491 0.05 0.082 0.132 0.869-0.237 1.03-2.232 0.972-3.718 3.289-3.718 5.888 0 3.599 2.919 6.518 6.519 6.518s6.518-2.919 6.518-6.518c0-2.985 0.356-2.741 1.466-2.806" fill="#0cf" fill-rule="evenodd"/>
    </g>
    <g transform="matrix(-1.25 0 0 -1.25 1174.3 928.16)" fill="#a04">
     <path d="m0 0c2.149 1.962 13.548 0.774 9.163-1.406-2.618-1.303-1.503-3.26-5.932-4.507-3.573-1.006-6.561 2.873-3.231 5.913" fill="#06f" fill-rule="evenodd"/>
    </g>
   </g>
  </g>
 </g>
</svg>
